#N canvas 95 0 818 367 12;
#X declare -lib mrpeach;
#X obj 110 227 udpsend;
#X msg 69 100 disconnect;
#X obj 110 166 packOSC;
#X floatatom 156 195 5 0 0 0 - - -;
#X obj 110 259 tgl 25 0 empty empty empty 17 7 0 10 -260097 -1 -1 1
1;
#X floatatom 511 142 3 0 0 0 - - -;
#X floatatom 538 142 3 0 0 0 - - -;
#X floatatom 565 142 3 0 0 0 - - -;
#X floatatom 592 142 3 0 0 0 - - -;
#X text 471 141 from;
#X obj 344 195 unpackOSC;
#X obj 344 222 pipelist;
#X obj 310 249 print unpacked;
#X obj 511 118 unpack 0 0 0 0 0;
#X floatatom 620 142 8 0 0 0 - - -;
#X obj 446 95 route received from;
#X floatatom 446 163 5 0 0 0 - - -;
#X text 486 163 bytes;
#X obj 571 3 import mrpeach;
#X obj 344 283 routeOSC /test;
#X floatatom 340 317 5 0 0 0 - - -;
#X obj 344 71 udpreceive 12000;
#X msg 49 80 connect 192.168.1.102 11000;
#X msg 110 139 send /sliderValue \$1;
#X floatatom 177 114 5 0 255 0 - - -;
#X connect 0 0 4 0;
#X connect 1 0 0 0;
#X connect 2 0 0 0;
#X connect 2 1 3 0;
#X connect 10 0 11 0;
#X connect 10 0 12 0;
#X connect 10 1 11 1;
#X connect 11 0 19 0;
#X connect 13 0 5 0;
#X connect 13 1 6 0;
#X connect 13 2 7 0;
#X connect 13 3 8 0;
#X connect 13 4 14 0;
#X connect 15 0 16 0;
#X connect 15 1 13 0;
#X connect 19 0 20 0;
#X connect 21 0 10 0;
#X connect 21 1 15 0;
#X connect 22 0 0 0;
#X connect 23 0 2 0;
#X connect 24 0 23 0;
